<svg data-v-423bf9ae="" xmlns="http://www.w3.org/2000/svg" viewBox="0 0 215.30435846653597 184" class="iconAbove"><!----><!----><!----><g data-v-423bf9ae="" id="4e5e8e36-e6a9-42ef-a347-c37f2e6c836f" fill="black" transform="matrix(5.797101235611727,0,0,5.797101235611727,-2.9565251432427715,106.48907711847582)"><path d="M4.00 13.34C4.91 13.34 5.66 13.07 6.27 12.60L5.45 11.58C5.09 11.93 4.58 12.13 4.03 12.13C2.73 12.13 1.95 11.14 1.95 9.84C1.95 8.55 2.73 7.57 4.03 7.57C4.58 7.57 5.09 7.77 5.45 8.12L6.27 7.10C5.66 6.64 4.91 6.36 4.00 6.36C1.94 6.36 0.51 7.89 0.51 9.84C0.51 11.81 1.94 13.34 4.00 13.34ZM10.57 13.34C12.66 13.34 14.12 11.81 14.12 9.84C14.12 7.89 12.66 6.36 10.57 6.36C8.46 6.36 7.01 7.89 7.01 9.84C7.01 11.81 8.46 13.34 10.57 13.34ZM10.57 12.13C9.35 12.13 8.49 11.14 8.49 9.84C8.49 8.56 9.35 7.57 10.57 7.57C11.78 7.57 12.64 8.56 12.64 9.84C12.64 11.14 11.78 12.13 10.57 12.13ZM18.00 4.20C18.19 4.20 18.43 4.27 18.65 4.43L19.26 3.40C18.80 3.12 18.40 2.99 17.85 2.99C16.67 2.99 15.84 3.81 15.84 5.40L15.84 6.53L14.96 6.53L14.96 7.67L15.84 7.67L15.84 13.15L17.24 13.15L17.24 7.67L18.62 7.67L18.62 6.53L17.24 6.53L17.24 5.29C17.24 4.65 17.43 4.20 18.00 4.20ZM22.20 4.20C22.39 4.20 22.63 4.27 22.85 4.43L23.46 3.40C23.00 3.12 22.60 2.99 22.05 2.99C20.87 2.99 20.04 3.81 20.04 5.40L20.04 6.53L19.16 6.53L19.16 7.67L20.04 7.67L20.04 13.15L21.44 13.15L21.44 7.67L22.82 7.67L22.82 6.53L21.44 6.53L21.44 5.29C21.44 4.65 21.63 4.20 22.20 4.20ZM29.95 9.70C29.95 7.73 28.63 6.36 26.70 6.36C24.72 6.36 23.29 7.89 23.29 9.84C23.29 11.80 24.70 13.31 26.88 13.31C28.01 13.31 28.98 12.92 29.58 12.25L28.60 11.46C28.18 11.94 27.61 12.19 26.86 12.19C25.62 12.19 24.88 11.33 24.78 10.15L29.95 10.15ZM26.70 7.50C27.74 7.50 28.41 8.12 28.55 9.17L24.84 9.17C25.04 8.17 25.73 7.50 26.70 7.50ZM37.65 9.70C37.65 7.73 36.33 6.36 34.40 6.36C32.42 6.36 30.99 7.89 30.99 9.84C30.99 11.80 32.40 13.31 34.58 13.31C35.71 13.31 36.68 12.92 37.27 12.25L36.30 11.46C35.88 11.94 35.31 12.19 34.56 12.19C33.32 12.19 32.58 11.33 32.48 10.15L37.65 10.15ZM34.40 7.50C35.44 7.50 36.11 8.12 36.25 9.17L32.54 9.17C32.74 8.17 33.43 7.50 34.40 7.50Z"></path></g><!----><g data-v-423bf9ae="" id="56780289-bf72-4f0c-845d-9883cf6d7da1" transform="matrix(1.1096666971842448,0,0,1.1096666971842448,52.77461459062397,0.6323296652958845)" stroke="none" fill="black"><path d="M80.892 60.816h-8.114a2.578 2.578 0 01-2.579-2.579V47.213a2.579 2.579 0 012.579-2.579h7.959c.969 0 1.876.378 2.557 1.064 1.262 1.274 1.342 3.211 1.337 3.774v6.152c.011.811-.099 2.913-1.356 4.188a3.336 3.336 0 01-2.383 1.004zm-5.536-5.158h4.115v-5.865h-4.115v5.865zM7.989 95.604h69.317M77.306 99.473H7.989a3.869 3.869 0 110-7.738h69.316a3.869 3.869 0 01.001 7.738z"></path><path d="M95.602 60.175v-10.66c0-1.764.007-4.65.017-6.414.004-.876-.181-3.925-2.741-6.499-1.395-1.401-3.939-3.071-8.142-3.071h-34.64c1.161-1.378 2.104-2.934 2.709-4.599 2.077-5.712.137-11.614-5.324-16.192-4.351-3.648-2.615-8.114-2.417-8.58a3.223 3.223 0 00-2.935-4.557c-6.006 0-10.919 3.326-12.822 8.681-1.89 5.316-.267 11.243 4.038 14.745 2.795 2.275 4.31 4.546 4.501 6.749.155 1.791-.608 3.161-1.014 3.752H16.84c-5.334 0-9.673 4.339-9.673 9.673v28.635c0 2.25.377 5.604.877 7.8.833 3.654 4.961 9.836 15.156 9.836l10.218-.001 19.06.001h7.631c8.202 0 12.197-4.56 12.914-5.474 1.982-2.525 3.368-6.531 3.368-9.742v-2.324h8.946c3.056 0 5.771-1.173 7.649-3.301 2.675-3.031 2.723-6.91 2.616-8.458zM37.415 18.028c-2.534-2.061-2.846-5.294-2.032-7.584.297-.837 1.048-2.377 2.749-3.393.051 3.358 1.284 7.343 5.207 10.631 2.341 1.963 4.833 5.125 3.406 9.046-.502 1.381-1.384 2.6-2.429 3.575.001-.294-.009-.596-.031-.903-.293-4.074-2.604-7.9-6.87-11.372zm47.922 47.457H73.166a3.235 3.235 0 00-3.226 3.225v5.549c0 1.773-.896 4.366-1.99 5.761 0 0-2.36 3.007-7.842 3.007l-26.691-.001-10.203.001h-.015c-7.77 0-8.868-4.819-8.868-4.819-.394-1.729-.716-4.595-.716-6.368V43.204a3.235 3.235 0 013.225-3.225h67.896c4.449 0 4.435 3.087 4.435 3.087-.01 1.773-.017 4.675-.017 6.448V60.45c-.001 0 .632 5.035-3.817 5.035z"></path></g><!----></svg>